<?xml version="1.0" encoding="utf-8"?>
<!-- Generator: Adobe Illustrator 16.0.0, SVG Export Plug-In . SVG Version: 6.00 Build 0)  -->
<!DOCTYPE svg PUBLIC "-//W3C//DTD SVG 1.1//EN" "http://www.w3.org/Graphics/SVG/1.1/DTD/svg11.dtd">
<svg version="1.1" id="Layer_1" xmlns="http://www.w3.org/2000/svg" xmlns:xlink="http://www.w3.org/1999/xlink" x="0px" y="0px"
	 width="132px" height="37px" viewBox="0 0 132 37" enable-background="new 0 0 132 37" xml:space="preserve">
<title>Page 1</title>
<desc>Created with Sketch.</desc>
<g id="Symbols">
	<g id="Footer" transform="translate(-31.000000, -42.000000)">
		<g id="Page-1" transform="translate(31.000000, 42.000000)">
			<polygon id="Fill-1" fill="#000000" points="64.826,10.391 58.211,27.225 51.596,10.391 42.443,10.391 42.443,36.484 
				48.177,36.484 48.177,16.898 55.711,36.521 59.9,36.521 67.547,16.75 67.547,36.484 73.573,36.484 73.573,10.391 			"/>
			<g id="Group-6" transform="translate(77.783461, 9.147705)">
				<path id="Fill-2" fill="#000000" d="M0.68,1.243h15.29c5.769,0,9.297,2.793,9.297,8.197c0,3.637-1.838,6.137-4.961,7.277
					l5.881,10.621h-6.58l-5.512-9.924H6.929v9.924H0.68V1.243z M6.929,6.609v5.55h8.378c2.317,0,3.565-0.918,3.565-2.718
					c0-1.985-1.212-2.832-3.565-2.832H6.929z"/>
				<path id="Fill-4" fill="#000000" d="M27.879,14.292c0-7.754,5.551-13.488,13.379-13.488c8.49,0,11.726,5.843,12.35,8.821H47.25
					c-0.59-1.03-2.39-3.198-5.992-3.198c-4.337,0-6.983,3.565-6.983,7.866c0,4.3,2.646,7.865,6.983,7.865
					c3.858,0,5.477-2.206,6.027-3.199h6.322c-0.516,2.61-3.564,8.822-12.35,8.822C33.429,27.78,27.879,22.046,27.879,14.292"/>
			</g>
			<polygon id="Fill-7" fill="#000000" points="0,20.768 0,28.663 8.062,28.663 8.062,36.52 16.077,36.52 16.077,20.768 			"/>
			<polygon id="Fill-8" fill="#000000" points="10.458,10.36 10.458,18.257 18.519,18.257 18.519,36.52 26.535,36.52 26.535,10.36 
							"/>
			<polygon id="Fill-9" fill="#000000" points="20.957,0 20.957,7.895 29.018,7.895 29.018,36.52 37.034,36.52 37.034,0 			"/>
		</g>
	</g>
</g>
</svg>
