<svg xmlns="http://www.w3.org/2000/svg" viewBox="0 0 464.77 84.8"><defs><style>.cls-1{fill:#d8d9da;}.cls-1,.cls-2,.cls-3{fill-rule:evenodd;}.cls-2,.cls-5{fill:#f8c858;}.cls-3,.cls-4{fill:#fff;}</style></defs><title>PHT-Logo-v2</title><g id="Layer_5" data-name="Layer 5"><path class="cls-1" d="M54.6,5.73v6.36C51.53,10.3,47.16,9.8,44.28,7.81c.21-1.18,1.69-1.09,2.61-1.56-.61-.17-1.9,0-2.3-.83C47.93,4.64,51.51,5.57,54.6,5.73Zm-6,.94V7c.3,0,.58,0,.52-.42A.68.68,0,0,0,48.56,6.67Z"/><path class="cls-1" d="M76.4,33.13c.1.92.19,5.1-1.25,5.1A31.44,31.44,0,0,0,76.4,33.13Z"/><path class="cls-1" d="M2.78,41.15c.22,0,.28.07.42.11,0,.18-.18.23-.42.2Z"/><path class="cls-1" d="M.07,42c.12,0,.19,0,.21.1a23,23,0,0,0,2,7.5c.32.77.49,1.7.84,2.4s1.24,1.19,1.25,2.08c1.57,1.66,2.6,3.86,4.69,5a1.85,1.85,0,0,1-1.67.42c-.66-.16-2.35-2.17-3-3.23A25.49,25.49,0,0,1,.07,44.9,14.68,14.68,0,0,1,.07,42Z"/><path class="cls-1" d="M33.23,66.36v2.5C24,69,16,66.56,10.5,62.3c.43-1.36.8-3.19-1.15-3.12-.12-.58.83-.08.84-.53-2.06-1.17-3.1-3.36-4.7-5a1.87,1.87,0,0,0-1-1.77c.12-1-.39-1.27-.73-1.77-.43-2.43-1.36-5.3-.83-8,.54.64.3,1.34.41,2.19a22.65,22.65,0,0,0,4.07,9.79c.63.85,1.36,1.62,2.09,2.5a17.68,17.68,0,0,0,3.54,3,44.33,44.33,0,0,0,4,2.61,41.06,41.06,0,0,0,15.23,4.27A1.86,1.86,0,0,0,33.23,66.36ZM16.13,63c-.76-.11-1-.76-1.77-.83-.62-.84-1.91-1-2.4-2h-.31c-.12.23-.35.34-.42.62,1.06,1.69,3.58,1.91,4.9,3.34,1.6-.25,1.81,1.33,3.13,1C19,63.73,16.68,64.25,16.13,63ZM21.24,66c0-.61-.56-.7-1-.84C19.79,65.71,20.75,66.24,21.24,66Zm1.56.21c0-.27-.35-.21-.62-.21C21.93,66.53,22.85,66.69,22.8,66.16Zm1,.31a.4.4,0,0,0,.42.41.67.67,0,0,0,.11-.52A.72.72,0,0,0,23.84,66.47Z"/><path class="cls-1" d="M30.94,46.47c-.13,0-.19,0-.21.1-.3,0-.45-.18-.42-.52A.39.39,0,0,1,30.94,46.47Z"/><path class="cls-1" d="M19.67,46.88c-.27,0-.44,0-.41-.31C19.55,46.46,19.7,46.45,19.67,46.88Z"/><path class="cls-1" d="M32,53.44h.42c0,.22-.08.28-.11.42C32,53.89,32,53.72,32,53.44Z"/><path class="cls-1" d="M38.76,67.93V66.57c1.12.14,2.5-.21,3.75,0C41.86,67.62,39.84,67.3,38.76,67.93Z"/><path class="cls-1" d="M42.3,83.34a21.36,21.36,0,0,1-3.44-.1H42.3Z"/><path class="cls-1" d="M42.3,83.34v-.1a2.45,2.45,0,0,1,0,1.56V83.34Z"/><path class="cls-1" d="M54.5,54.28A42.26,42.26,0,0,0,54.6,59c.07.49-.13,1.24.11,1.56-.37.19-.15-1.1-.21-1.56-3.87,2.34-7.93,4.51-13.55,5.1-.18-.62.61-.29.83-.52A13.15,13.15,0,0,0,39,63.24c-.29.16.09.52-.2.62v-.73a10.29,10.29,0,0,0,0-3.23V58.24a24.57,24.57,0,0,0,0-5V51.78c.31-1-.11-2.81.2-3.86a7.88,7.88,0,0,0,1.88,2.71,20.09,20.09,0,0,1-2,1.15v1.35c.54,0,.92-.19,1.46-.21s-.19.35-.11.63c.85-.11,3.76-.75,4.07-1.36.06-.1-.37-.06-.31-.2a8,8,0,0,0,6.57-2.3c-.08.23-.49.35-.21.63,2.14-1.3,3.28-3.6,4.17-6.15a9,9,0,0,0,.1,2.19v7.71h-.1c-.07-2.54.14-5.35-.1-7.71-2.95,6.19-8.16,10.12-15.54,11.88.07.49-.13,1.25.1,1.56,1.79-.3,3.69-1,5.43-1,.1.3-.67.53-.11.62C49.22,59.21,51.67,56.55,54.5,54.28Z"/><path class="cls-1" d="M60.13,7.4V0c.24,2.19,0,4.83.11,7.19,8.82,3.21,16.38,9.63,19,19.06.75,2.72,1.17,6.91.32,9.8a2.12,2.12,0,0,1-.63-2.4c-1-1.24-1.21-3.23-2.4-4.27,0-.51.36-.76.52-1.15-.32-.07-.3.18-.62.11-.08-.32.28-.2.2-.52s-.26-.23-.52-.21c-.27-1.59-.4-2.92-1.35-4-.08-.43.16-.54.1-.94a3.66,3.66,0,0,0-1-.83c.1-1.49-1.18-1.6-1.77-2.4-.11-.45.35-.34.31-.73-1.23-1.48-3-2.5-4.59-3.85-.92-.8-1.6-1.8-2.71-2.19-.36.34.47.36.31.83-1,.51-1.58.1-2.29-.41-.11-.46.35-.35.31-.73s-.58,0-.83-.11v-.52c-.62.28-1.33-.48-1.46.42-.23-.19-.35-.48-.73-.52s0,.58-.1.83a1.35,1.35,0,0,0,1.14.11c1.69,1.68,3.84,2.9,5.63,4.48a23.35,23.35,0,0,0,2.92,3.12c1.51,3.15,3.31,6,3.44,10.52a32.15,32.15,0,0,0-13-15.62c-.24,2.29,0,5-.1,7.5h-.11V15a6.19,6.19,0,0,0,0-2.5v-1A16.22,16.22,0,0,0,60.13,7.4Z"/><path class="cls-1" d="M62.53,37c-.56.63-1.15,1.22-1.67,1.88.11-1.54-.44-2.41-.52-3.75a21.63,21.63,0,0,0,0,4.69c0,.06-.15.13-.1.21-.59-1,.21-3.81-.11-5.21a36.68,36.68,0,0,0,.11-4.38A19,19,0,0,1,62.53,37Z"/><path class="cls-1" d="M33.09,57.37c-7.78-.19-14.44-3.56-17.38-9.56,0-1.11-.59-1.74-.73-2.6-1.21-7.48,3.94-12,7.71-15.19-.23-.54,0-.73.31-1-.13-.31-.36.12-.63,0,4.23-6,17.6-6.32,23.84-2.39A6.73,6.73,0,0,0,43.3,27c.3-.79-1.64-.56-.63.2-.16.19-.45.25-.62.42-.12-.61-.86-.6-.94-1.25-.45,0-.34.5-.63.63-.61,0-.91-1.23-1.45-.42.35.93,1.79.77,2.6,1.25A21.8,21.8,0,0,0,40,29.5a4.16,4.16,0,0,0-2.49-.62h-.11A6.52,6.52,0,0,0,36.53,27c-.32-.24-1.07,0-1.56-.11a53.16,53.16,0,0,0-5.41.11c-.24.28,0,1-.11,1.45a22.52,22.52,0,0,0,3.44.11c-.74.77-2.67-.19-2.92,1.14-.1.48.62.14.52.63a5.26,5.26,0,0,1-2.39,1.24c-.49.12-.92.63-1.46.84A20.18,20.18,0,0,0,23.52,34c-1.23.69-1.75,2.18-3.33.93a10.39,10.39,0,0,0-4.27,8.32,10.51,10.51,0,0,0,2,5.93,13.32,13.32,0,0,0,4.16,4.16c.31.15.7.07,1,.21A14.74,14.74,0,0,0,26.64,55c.31,0,.32-.23.63-.21s.64.6,1.14.32c.16-.15.09-.54.1-.83a1.63,1.63,0,0,0-1.14-.21c-2.32-1.53-5.69-2-6.66-4.89-.5-.25-1.1-.78-.94-1.35,1.44.1,1.76,1.57,2.6,2.39.3.28.93.36,1.46.73s1,1.12,1.46,1.35.79.06,1.14.21.5.4.84.52a13.28,13.28,0,0,0,3.85.52c.17.14,0,.59.2.73h1.77c-.21-.75-.07-.75,0-1.57-.53-.29-1.8.14-1.66-.83.42-.27.83.35,1.14-.1-.08-.54-1.11-.46-1.56-.31-3.49-1.12-6.94-2.29-8.22-5.62.2-.57-.33-.94-.42-1.35a10.69,10.69,0,0,1,.11-1.56,7.11,7.11,0,0,1,.31-2.5,11.31,11.31,0,0,1,.52-1.14c.4-.76,1.32-1.4,1.56-2.08.38-1.05-.25-2.26.42-3.22,1.07-.75,2.52-2.19,3.95-1.88-.42.38-1.22.38-1.45.94,1.67-.55,2.92-1.51,5.3-1.35V28.57h.11v3.22a18.79,18.79,0,0,0,0,4.37v2.39a12.35,12.35,0,0,0,0,3.54v.72a88.63,88.63,0,0,0,0,9.78v1.67A18.36,18.36,0,0,0,33.09,57.37Zm0-21.11c-.55-.13-1.67-.13-1.77.52,0,.33.61.09.73.31.15.84-1.13.26-1.14.94a6.13,6.13,0,0,0,2.18.52Zm0,6.45v-.62C32.59,42.05,32.84,42.65,33.09,42.71Zm-6.55-9.05c.38,0,.61-.08.62-.41C26.77,33.2,26.69,33.47,26.54,33.66ZM25.39,39.9a5,5,0,0,0-1.56,5,6.71,6.71,0,0,0,3.54,3.84c.62.2,1.2-.09,1.77.32a4.16,4.16,0,0,0,.42-.42,2.31,2.31,0,0,0-.84-1.15c-.47-.05-.44.4-.93.32a9.18,9.18,0,0,1-1.25-1.46c.16-.12.25-.3.41-.41-.1-.7-.79-.81-1-1.36.2-1.09-.05-2.76.52-3.95-.24-.35-.6.36-.83,0,0-.29.39-.44.1-.73Zm1.46,4.58c.86.77,2.33.93,2.6,2.29.08,0,.21,0,.21.1.66,0,1-.27,1.66-.21a2.75,2.75,0,0,0,.21-1.25c-2.5.12-2.79-2.45-2-4.26-.58-.33-.51.51-1.15.42-.21-.46.61-.75.1-.83C26.86,41.05,26.75,43.27,26.85,44.48Z"/><path class="cls-1" d="M67.53,35.73c-.71,0-1.45-.26-2.08,0a6.64,6.64,0,0,0-1.25-4.16.86.86,0,0,1,.21-.63,3.82,3.82,0,0,0-1.15-1c.14-1.53-1.23-1.55-1.77-2.4,0-.3.37-.32.31-.73a7.22,7.22,0,0,0-1.56-1.35v4.79h-.11v-5a11.75,11.75,0,0,0,.11-2.5A20.91,20.91,0,0,1,67,35.63C67.16,35.69,67.55,35.51,67.53,35.73Z"/><path class="cls-1" d="M33.44,84.8c2.74-.24,5.94,0,8.86-.1v.1Z"/><path class="cls-1" d="M54.6,18.54v2.3a.48.48,0,0,0-.31-.11c0,.35.09.65.31.42v2.5h-.1v-2c-.51-.09-.69.14-1,.21-.1-.46-.64-.47-.84-.83,0-.35.47-.46.21-.73H52c-.06-.19.12-.62-.11-.63-1.25.84-2.64-1-3.54,0,.6.59,1.3,1.38,2.4,1.15,1,1.22,2.6,1.84,3.75,2.91v2.61C49.09,21.39,38,18,29.06,21.15c-.32,0-.5-.24-.73,0,.08.91-.93.74-1,1.46.27.32.86-.44,1,.1-1.81,1.57-4.59,2.53-6.88,3.86-1.87,1.08-3.62,2.19-5.42,3.23-.25-.38-.77-.5-.32-1.05-3.81,2.75-7.58,7.67-7.5,14.07,0,3.68,1.51,6.62,3,9.37,1.76,1.68,3,3.85,5.21,5.11A32,32,0,0,0,25.51,61c.86-.64,1.49.79,1.88-.32-.07-.37-.76-.14-1.15-.2-.07-.35-.36-.48-.62-.63-1.18.14-1.37-.71-2.5-.62-2.64-1.56-5.75-2.82-7.82-5a7,7,0,0,1-1.67-2.5,5.09,5.09,0,0,1,1.56,1.15c2.4,2,4.36,4.18,7.93,5.31.82.26,1.57.8,2.5,1s1.84.46,2.81.62a25.51,25.51,0,0,0,4.7.42V57.51h.1v2.81a9,9,0,0,0,0,3v1.88c-.24-.35,0-1.15-.1-1.67-.61-.44-1.22-.17-1.88-.21a31.14,31.14,0,0,1-16.37-5.73,23.11,23.11,0,0,1-2-2,17.92,17.92,0,0,1-4.17-6C5,39.77,10,30.94,16,25.94c2.14-1.79,4.93-3,6.36-5.52.13-.52-.33-.44-.32-.83,7.52-5.72,23.67-6,32.22-1.15A.5.5,0,0,0,54.6,18.54ZM43.55,18c.06-.37-.31-.31-.62-.31A.37.37,0,0,0,43.55,18Zm1.67.21c-.07.72.43.6.94.52.4.52,1.12,1.23,1.88,1.05C47.7,18.57,46.58,18.17,45.22,18.23Z"/><path class="cls-1" d="M43.7,39.19c-.58.42-1.34-.14-1.41-.73C42.81,38.11,43.31,38.92,43.7,39.19Z"/><path class="cls-1" d="M41.82,49.91a9.81,9.81,0,0,1-2.62-3.66c.39.22.49-.58.74-1,.08-.15.37-.27.42-.47.1-.5.37-1.28.41-1.63a5.92,5.92,0,0,0-.05-1.25c0-.2-.19-.43-.21-.63s.09-.39.05-.57c-.09-.52-.61-.8-.83-1.15a2.9,2.9,0,0,0-1.31-1.68V36.47a8.34,8.34,0,0,1,.1-1.15v.47c.57.72,1.88,1.23,2.41,2.25.11.22.14.51.26.73.22.4.65.65.79,1,.05.14,0,.34.05.52a13.06,13.06,0,0,1,.52,2.46c0,.21-.13.43-.15.68s.06.8,0,1.15A11.34,11.34,0,0,0,42,46.2c-.2.17-.57.6-.32.88.25,0,.48-.39.63-.62.32-.51.49-1.32,1.15-1.57.17.66-.61,1.22-.78,1.88,1.08-.08,1.26-2,1.88-2.66a1.56,1.56,0,0,1,.21-1,1.52,1.52,0,0,1,.1-.94,1.22,1.22,0,0,1-.05-.94,3.84,3.84,0,0,0-.26-.62c.32-.74-.3-1-.52-1.52.31-1-.75-1.48-1.83-1.46a15.63,15.63,0,0,0-2.1-1.94c-.34-.26-.72-.34-.89-.78-.29,0-.43-.35-.63-.26a11.93,11.93,0,0,1,.53-1.94V33c1.35.36,2.1,1.32,3.24,1.88a2,2,0,0,1,.26.47,9.69,9.69,0,0,1,1.47,1.31,18.82,18.82,0,0,1,1.46,3.55,3.84,3.84,0,0,1,0,.48c0,.3.2.57.21.83C46,45.32,43.8,48,41.82,49.91Zm-.16-14.33c-.34-.29-.77-.88-1.25-.83,0,.1-.06.11,0,.21a3.42,3.42,0,0,0,.68.78c.41.43.78.95,1.46.84C42.54,36.11,42,35.9,41.66,35.58Z"/><path class="cls-1" d="M60.63,42a10.67,10.67,0,0,1,2.23-3.48.45.45,0,0,1-.21.22,23.52,23.52,0,0,1-2.78,12.07c0-.69.1-1.24.05-2s.1-1.1.06-1.74A8.74,8.74,0,0,0,60,45.49a11.22,11.22,0,0,0,.71-3.64A.15.15,0,0,1,60.63,42Z"/><path class="cls-1" d="M65.8,36.84a2.49,2.49,0,0,1,1.48,0c.21,8.31-3.23,13.43-7.08,17.85a8.71,8.71,0,0,1-.28-2c.07,0,0,.1.06.17a10.6,10.6,0,0,0,2.72-2.78c.26-.09.39-.3.6-.43A20.65,20.65,0,0,0,66,38.91c0-.22.2-.27.17-.54C65.86,38,66.17,37.23,65.8,36.84Z"/><path class="cls-1" d="M40.93,30a6.08,6.08,0,0,1,1.92-1.55c1.27,1.13,3,1.81,4.28,3,.51.51,1,1.05,1.44,1.61.13-.18,0-.59.06-.86a5.55,5.55,0,0,1,0,1.18.66.66,0,0,0,0,.58v1a.68.68,0,0,0,0,.59c0,3.79.07,7.73,0,11.43V36c-.08-.44-.46-.58-.54-1-2.13-1.85-3.91-4.07-7-5C41,30,41,30,40.93,30Z"/><path class="cls-1" d="M43.71,28.15a2.17,2.17,0,0,1,.85-.21h.06c.11.21.43.21.37.58-.05.1-.17.12-.27.16C44.3,28.59,44.24,28.13,43.71,28.15Z"/><path class="cls-2" d="M60.2.06c-.05,13.3.1,26.8-.08,40A3.79,3.79,0,0,0,61,39c1.37-1.94,4-4.11,7.46-3,5.28,1.73,8.8,8.86,7.62,15.73a13.51,13.51,0,0,1-3.28,6.47,8.49,8.49,0,0,1-6.62,3c-2.68-.15-4.15-1.83-6-3-1.83.71-3.78,1.7-5.48,2.28V1.73a35,35,0,0,1-3.73-.08V.21C53.94.09,57,0,60.2.06ZM64.46,37.3a8.89,8.89,0,0,0-4.26,6.92c-.08,1,0,2.1-.08,3.19-.19,2.9-.24,6.35.69,8.59.85,2,3.15,4.28,5.56,4.11,3.69-.27,3.8-4.4,3.8-9.13,0-3.67.42-9.24-.53-11.55-.59-1.44-1.93-2.76-3.58-2.58A4.45,4.45,0,0,0,64.46,37.3Z"/><path class="cls-3" d="M38.71,47.55V83.19a31.71,31.71,0,0,0,3.55.07V84.8h-9c0-18.82-.13-37.53-.07-56.41H29.44V26.93c2.32-.05,4.62-.11,7-.08a39.3,39.3,0,0,1,2.08,4.7c1.64-2.33,3.1-5,6.8-5.08,3-.08,5.26,2.16,6.56,3.92A15,15,0,0,1,54.77,38a14.66,14.66,0,0,1-2.24,9.31c-1.7,2.53-4.46,5.06-8.34,4.7C41.27,51.75,39.88,49.84,38.71,47.55Zm2.93-18.39c-2.33,2-3.22,5.41-3,9.85.1,2.31-.1,4.65.46,6.47a8.07,8.07,0,0,0,4.1,5.08c2.48,1.1,4.55-.29,5.25-2.62a18,18,0,0,0,.23-4.46V38.7c0-5.07.89-11.62-4.25-10.85A6,6,0,0,0,41.64,29.16Z"/><path class="cls-4" d="M109.81,49a6.78,6.78,0,0,1-2.83.67,5.36,5.36,0,0,1-2.7-.67,5,5,0,0,1-2.08-2.27V57.36h2.73v1h-7V34.45H95.09v-1l5.45,0,1.58,3.08a6.77,6.77,0,0,1,3.3-2.94,5.45,5.45,0,0,1,3.56-.12,7.38,7.38,0,0,1,3.14,2,9.17,9.17,0,0,1,2,3.46,8.93,8.93,0,0,1,.28,4.17A8.52,8.52,0,0,1,109.81,49Zm0-11.75a3.54,3.54,0,0,0-.63-2.25,2.55,2.55,0,0,0-1.54-1,3.63,3.63,0,0,0-2,.2,5.15,5.15,0,0,0-1.92,1.24,5.35,5.35,0,0,0-1.26,1.82,6.48,6.48,0,0,0-.44,1.92,14.57,14.57,0,0,0,0,2.09c0,.72.08,1.49.08,2.31a5.17,5.17,0,0,0,.75,2.71,6,6,0,0,0,1.82,2A4,4,0,0,0,107,49a2.6,2.6,0,0,0,2-1,3.24,3.24,0,0,0,.62-1.11,4.38,4.38,0,0,0,.17-1.27Z"/><path class="cls-4" d="M132.18,40.37h-9.83c0,.48,0,1-.06,1.64s-.06,1.25,0,1.88a12.48,12.48,0,0,0,.16,1.85,4.57,4.57,0,0,0,.53,1.6A3.1,3.1,0,0,0,124,48.47a3.32,3.32,0,0,0,1.79.43,3.85,3.85,0,0,0,1-.13,8.38,8.38,0,0,0,1-.38c.35-.16.69-.33,1-.51s.61-.37.87-.56l.48.71A8.51,8.51,0,0,1,126,49.65a7.35,7.35,0,0,1-3.73-.61,7.46,7.46,0,0,1-2.89-2.29,8.44,8.44,0,0,1-1.6-3.38,8.79,8.79,0,0,1,0-3.85A8.27,8.27,0,0,1,120,35.75a7.53,7.53,0,0,1,2.7-1.9,7.82,7.82,0,0,1,3-.57,8.13,8.13,0,0,1,2.85.57,7.33,7.33,0,0,1,2.33,1.49,6,6,0,0,1,1.44,2.17,4.77,4.77,0,0,1,.2,2.66Zm-4.05-2.11a9.46,9.46,0,0,0,0-1.3,5.1,5.1,0,0,0-.18-1.25,2.19,2.19,0,0,0-.55-1,2,2,0,0,0-1-.57,4.84,4.84,0,0,0-1.12-.14,2.89,2.89,0,0,0-1.84.5,2.63,2.63,0,0,0-.87,1.28,5.67,5.67,0,0,0-.25,1.74v1.85h5.72C128.07,39.07,128.09,38.69,128.13,38.26Z"/><path class="cls-4" d="M147.37,49a6.4,6.4,0,0,1-2.9.65,5.29,5.29,0,0,1-1.74-.29,10.3,10.3,0,0,1-1.56-.67c-.46-.25-1-.58-1.56-1l-4.27,1.54V23.7H132.5v-1c1.24,0,2.43,0,3.57-.14s2.33-.25,3.54-.46v14a6,6,0,0,1,3.18-2.65,5.47,5.47,0,0,1,3.51,0,7.86,7.86,0,0,1,3.14,2.07,9.32,9.32,0,0,1,2.1,3.42,8.45,8.45,0,0,1,.33,4.11,8.05,8.05,0,0,1-2.11,4.15A8.19,8.19,0,0,1,147.37,49Zm-.1-11.31a6,6,0,0,0-.16-1.41,3,3,0,0,0-.59-1.24,2.51,2.51,0,0,0-2.05-1.19,4,4,0,0,0-2.28.74,6.08,6.08,0,0,0-1.83,2,5,5,0,0,0-.75,2.61c0,.68,0,1.39-.08,2.13a18.11,18.11,0,0,0,0,2.21,8.8,8.8,0,0,0,.37,2.13A4.15,4.15,0,0,0,141,47.52a5,5,0,0,0,2.07,1.26,3.4,3.4,0,0,0,2,0,2.91,2.91,0,0,0,1.54-1.21,4.22,4.22,0,0,0,.61-2.41Z"/><path class="cls-4" d="M166.73,49a6.47,6.47,0,0,1-2.91.65,5.29,5.29,0,0,1-1.74-.29,10.3,10.3,0,0,1-1.56-.67c-.46-.25-1-.58-1.56-1L154.7,49.3V23.7h-2.85v-1c1.24,0,2.43,0,3.58-.14s2.32-.25,3.53-.46v14a6,6,0,0,1,3.18-2.65,5.5,5.5,0,0,1,3.52,0,8,8,0,0,1,3.14,2.07A9.29,9.29,0,0,1,170.89,39a8.45,8.45,0,0,1,.34,4.11,8.5,8.5,0,0,1-4.5,5.94Zm-.1-11.31a6.62,6.62,0,0,0-.16-1.41,3.16,3.16,0,0,0-.59-1.24,2.53,2.53,0,0,0-2.06-1.19,4,4,0,0,0-2.27.74,6.1,6.1,0,0,0-1.84,2,5,5,0,0,0-.75,2.61c0,.68,0,1.39-.08,2.13a18.11,18.11,0,0,0,0,2.21,8.8,8.8,0,0,0,.38,2.13,4.07,4.07,0,0,0,1.15,1.82,4.85,4.85,0,0,0,2.07,1.26,3.37,3.37,0,0,0,2,0A2.87,2.87,0,0,0,166,47.6a4.22,4.22,0,0,0,.62-2.41Z"/><path class="cls-4" d="M174.17,49.1V23.7h-2.84v-1c1.23,0,2.43,0,3.57-.14s2.33-.25,3.54-.46v26h2.88v1Z"/><path class="cls-4" d="M197.56,40.37h-9.84c0,.48,0,1-.06,1.64s0,1.25,0,1.88a14,14,0,0,0,.16,1.85,4.57,4.57,0,0,0,.53,1.6,3.27,3.27,0,0,0,1.09,1.13,3.33,3.33,0,0,0,1.8.43,3.83,3.83,0,0,0,1-.13,7.38,7.38,0,0,0,1-.38c.36-.16.69-.33,1-.51s.6-.37.87-.56l.47.71a8.47,8.47,0,0,1-4.17,1.62,7.36,7.36,0,0,1-3.73-.61,7.5,7.5,0,0,1-2.88-2.29,8.31,8.31,0,0,1-1.6-3.38,8.5,8.5,0,0,1,0-3.85,8.15,8.15,0,0,1,2.11-3.77,7.65,7.65,0,0,1,2.71-1.9,7.75,7.75,0,0,1,3-.57,8.08,8.08,0,0,1,2.84.57,7.22,7.22,0,0,1,2.33,1.49,5.74,5.74,0,0,1,1.44,2.17,4.68,4.68,0,0,1,.2,2.66Zm-4.05-2.11a11.36,11.36,0,0,0,0-1.3,6.28,6.28,0,0,0-.18-1.25,2.29,2.29,0,0,0-.55-1,2.09,2.09,0,0,0-1-.57,4.92,4.92,0,0,0-1.13-.14,2.85,2.85,0,0,0-1.83.5,2.63,2.63,0,0,0-.87,1.28,5.67,5.67,0,0,0-.26,1.74v1.85h5.73C193.45,39.07,193.47,38.69,193.51,38.26Z"/><path class="cls-5" d="M212.74,49a6.4,6.4,0,0,1-2.9.65,5.29,5.29,0,0,1-1.74-.29,10.3,10.3,0,0,1-1.56-.67c-.46-.25-1-.58-1.56-1l-4.27,1.54V23.7h-2.84v-1c1.24,0,2.43,0,3.58-.14s2.32-.25,3.53-.46v14a6,6,0,0,1,3.18-2.65,5.5,5.5,0,0,1,3.52,0,8,8,0,0,1,3.14,2.07A9.43,9.43,0,0,1,216.91,39a8.45,8.45,0,0,1,.34,4.11A8.47,8.47,0,0,1,212.74,49Zm-.1-11.31a6.62,6.62,0,0,0-.15-1.41,3.18,3.18,0,0,0-.6-1.24,2.51,2.51,0,0,0-2-1.19,4,4,0,0,0-2.27.74,6,6,0,0,0-1.84,2,5,5,0,0,0-.75,2.61c0,.68,0,1.39-.08,2.13a18.11,18.11,0,0,0,0,2.21,8.8,8.8,0,0,0,.38,2.13,4.13,4.13,0,0,0,1.14,1.82,4.94,4.94,0,0,0,2.08,1.26,3.37,3.37,0,0,0,2,0A2.91,2.91,0,0,0,212,47.6a4.22,4.22,0,0,0,.61-2.41Z"/><path class="cls-5" d="M233.34,37.57a2.52,2.52,0,0,1-1.56.49,2.72,2.72,0,0,1-1.52-.49,1.34,1.34,0,0,1-.59-1.31c0-.21.05-.42.08-.65s.05-.44.08-.65l-.08-.16-.24-.08a1.57,1.57,0,0,0-1.3.36,4.41,4.41,0,0,0-1.05,1.26,10.06,10.06,0,0,0-.79,1.78q-.33,1-.57,2a15.54,15.54,0,0,0-.34,1.85c-.06.58-.1,1-.1,1.35v4.81h3.56v1h-7.78v-1h0V34.45h-2.61v-1h5.22l1.57,4.19a20.12,20.12,0,0,1,1.13-1.84,6.29,6.29,0,0,1,1.48-1.52,5.75,5.75,0,0,1,1.78-.81,5.19,5.19,0,0,1,2.05-.18,3.09,3.09,0,0,1,1.7.73,2.17,2.17,0,0,1,.67,1.84A2,2,0,0,1,233.34,37.57Z"/><path class="cls-5" d="M251.53,44.8a8.07,8.07,0,0,1-1.83,2.56A8.52,8.52,0,0,1,247.09,49a8.1,8.1,0,0,1-3,.61,8.56,8.56,0,0,1-3.12-.55,7.51,7.51,0,0,1-2.83-1.88,8.42,8.42,0,0,1-1.85-2.6,7.39,7.39,0,0,1-.68-3.12,7.32,7.32,0,0,1,.68-3.14,9.51,9.51,0,0,1,1.81-2.63A7.86,7.86,0,0,1,241,33.84a8.58,8.58,0,0,1,3.12-.56,8.48,8.48,0,0,1,3,.63,8.59,8.59,0,0,1,2.61,1.68,8.22,8.22,0,0,1,1.81,2.57,8.33,8.33,0,0,1,0,6.64Zm-4-2.55c0-.8,0-1.66,0-2.57a21.64,21.64,0,0,0-.19-2.61,4.81,4.81,0,0,0-.62-1.91,2.14,2.14,0,0,0-1.26-.93,6.14,6.14,0,0,0-1.58-.22,3.86,3.86,0,0,0-1.9.4,2.77,2.77,0,0,0-1.08,1,4.09,4.09,0,0,0-.48,1.56c-.06.61-.1,1.24-.1,1.9,0,.4,0,1-.05,1.8s-.05,1.65,0,2.55a21.38,21.38,0,0,0,.21,2.58,4.86,4.86,0,0,0,.62,1.92,2.31,2.31,0,0,0,1.24.91,5.17,5.17,0,0,0,1.56.23,4.12,4.12,0,0,0,1.9-.37,2.62,2.62,0,0,0,1.08-1,4.17,4.17,0,0,0,.5-1.54,16.25,16.25,0,0,0,.11-1.91C247.48,43.65,247.5,43.05,247.52,42.25Z"/><path class="cls-5" d="M271.28,44.8a8,8,0,0,1-1.84,2.56,8.36,8.36,0,0,1-2.6,1.66,8.1,8.1,0,0,1-3,.61,8.56,8.56,0,0,1-3.12-.55,7.51,7.51,0,0,1-2.83-1.88A8.42,8.42,0,0,1,256,44.6a7.39,7.39,0,0,1-.68-3.12,7.32,7.32,0,0,1,.68-3.14,9.51,9.51,0,0,1,1.81-2.63,7.86,7.86,0,0,1,2.87-1.87,8.58,8.58,0,0,1,3.12-.56,8.48,8.48,0,0,1,3,.63,8.59,8.59,0,0,1,2.61,1.68,8.22,8.22,0,0,1,1.81,2.57,8.33,8.33,0,0,1,0,6.64Zm-4-2.55c0-.8,0-1.66,0-2.57a21.64,21.64,0,0,0-.19-2.61,4.81,4.81,0,0,0-.62-1.91,2.14,2.14,0,0,0-1.26-.93,6.14,6.14,0,0,0-1.58-.22,3.86,3.86,0,0,0-1.9.4,2.77,2.77,0,0,0-1.08,1,4.09,4.09,0,0,0-.48,1.56c-.06.61-.1,1.24-.1,1.9,0,.4,0,1-.05,1.8s0,1.65,0,2.55a21.38,21.38,0,0,0,.21,2.58,4.7,4.7,0,0,0,.62,1.92,2.31,2.31,0,0,0,1.24.91,5.17,5.17,0,0,0,1.56.23,4,4,0,0,0,1.89-.37,2.59,2.59,0,0,0,1.09-1,4,4,0,0,0,.49-1.54,14.28,14.28,0,0,0,.12-1.91C267.23,43.65,267.25,43.05,267.27,42.25Z"/><path class="cls-5" d="M275.65,49.1V23.7H272.8v-1c1.24,0,2.43,0,3.58-.14s2.32-.25,3.53-.46v26h2.45v1Zm10.86,0v-1h-.08l-6-7.7,6.2-6v-1h5.21v1h-3.47L284,38.63l7.39,9.48H293v1Z"/><path class="cls-5" d="M312.89,49.1V40.66H306v7.8h2.53v.64h-5.77V32.71h-2.52v-.64H306v8h6.86v-8h5.77v.64h-2.53V48.46h2.53v.64Z"/><path class="cls-5" d="M334,44a9.57,9.57,0,0,1-1.67,2.78,8.45,8.45,0,0,1-2.42,1.92,7,7,0,0,1-2.89.82,6.75,6.75,0,0,1-3-.54,8.06,8.06,0,0,1-2.87-2.13,9.36,9.36,0,0,1,0-12.47A8,8,0,0,1,324,32.23a7,7,0,0,1,3-.53,7.09,7.09,0,0,1,2.87.8,8.56,8.56,0,0,1,2.43,1.91A9.6,9.6,0,0,1,334,37.19,9.61,9.61,0,0,1,334,44Zm-3.12-6.43a9.5,9.5,0,0,0-.21-2,4.62,4.62,0,0,0-.67-1.65,3.46,3.46,0,0,0-1.29-1.13,4.47,4.47,0,0,0-2-.42,5.11,5.11,0,0,0-1.75.3,3.08,3.08,0,0,0-1.41,1,4.14,4.14,0,0,0-.83,1.86,11.15,11.15,0,0,0-.19,2v6.07a10.21,10.21,0,0,0,.19,2,4.44,4.44,0,0,0,.67,1.65,3.54,3.54,0,0,0,1.29,1.13,4.36,4.36,0,0,0,2,.42,5.15,5.15,0,0,0,1.75-.3,3.08,3.08,0,0,0,1.41-1,4,4,0,0,0,.85-1.86,11.18,11.18,0,0,0,.2-2Zm-3.17,3.56a1.43,1.43,0,0,1-.89.32,1.47,1.47,0,0,1-.87-.31,1.1,1.1,0,0,1-.4-.94,1.14,1.14,0,0,1,.4-1,1.39,1.39,0,0,1,1.76,0,1.08,1.08,0,0,1,.41.94A1.12,1.12,0,0,1,327.73,41.11Z"/><path class="cls-5" d="M349.74,37.52a11.93,11.93,0,0,0-.5-2.21,3.89,3.89,0,0,0-.89-1.5,3.46,3.46,0,0,0-1.48-.84,8,8,0,0,0-2.26-.26V48.46h2.68v.64h-5.92V32.71H339l-2.4,0-.38,4.84h-.82l.28-5.45h14.62l.28,5.45Z"/><path class="cls-5" d="M351.8,49.1v-.64h2.53V32.71H351.8v-.64h14.06l.17,4.59h-.71a6.81,6.81,0,0,0-1.1-2.58,3.35,3.35,0,0,0-1.6-1.15,6.49,6.49,0,0,0-2.2-.26c-.83,0-1.78,0-2.85,0V40c.32,0,.76,0,1.31,0a16,16,0,0,0,1.7,0,8.31,8.31,0,0,0,1.63-.24,2.05,2.05,0,0,0,1.15-.74,4.28,4.28,0,0,1,.26-.37l.21-.28a1.13,1.13,0,0,0,.13-.32,3,3,0,0,0,0-.46h.72V44H364a3.73,3.73,0,0,0-.56-2.29,2.64,2.64,0,0,0-1.48-1,6.44,6.44,0,0,0-2.06-.18c-.77,0-1.54.06-2.32.06v7.8h8.9v.64Z"/><path class="cls-5" d="M381.41,49.1h-11.6V32.71h-2.53v-.64h5.77V48.46c1.12,0,2.15,0,3.09,0a6.64,6.64,0,0,0,2.45-.46,3.35,3.35,0,0,0,1.63-1.49,7,7,0,0,0,.68-3.13h.79Z"/><path class="cls-5" d="M403.21,37.52a11.18,11.18,0,0,0-.5-2.21,3.89,3.89,0,0,0-.89-1.5,3.46,3.46,0,0,0-1.48-.84,8,8,0,0,0-2.25-.26V48.46h2.67v.64h-5.91V32.71h-2.4l-2.4,0-.38,4.84h-.81l.27-5.45h14.62l.28,5.45Z"/><path class="cls-5" d="M419.91,49.36a6.3,6.3,0,0,1-1.9-.19,3.6,3.6,0,0,1-1.54-.86,2.7,2.7,0,0,1-.74-1.76c0-.36-.06-.75-.09-1.18s-.06-.88-.11-1.32a12.44,12.44,0,0,0-.22-1.27,3.7,3.7,0,0,0-.42-1.1,2.86,2.86,0,0,0-.8-.85,2.69,2.69,0,0,0-1-.4,5.42,5.42,0,0,0-1.1-.1h-1.14v8.13h2.52v.64h-5.76V32.71h-2.53v-.64h9a15.13,15.13,0,0,1,2.18.16,4.89,4.89,0,0,1,2,.76,2.84,2.84,0,0,1,1.11,1.28,4.43,4.43,0,0,1,.31,1.67,3.13,3.13,0,0,1-.51,1.83,4.31,4.31,0,0,1-1.3,1.21,6.61,6.61,0,0,1-1.74.74,15.61,15.61,0,0,1-1.82.38,7.31,7.31,0,0,1,2.75,1,4.58,4.58,0,0,1,1.43,1.53,4.44,4.44,0,0,1,.53,1.76c.05.61.09,1.18.1,1.72a13.51,13.51,0,0,0,.12,1.42,1.1,1.1,0,0,0,.57.88,1.06,1.06,0,0,0,.41.11l.51,0,.54,0,.43,0v.58A10.07,10.07,0,0,1,419.91,49.36Zm-3.77-14.55a2.55,2.55,0,0,0-.51-1.26,1.83,1.83,0,0,0-1-.64,6,6,0,0,0-1.3-.23,10.16,10.16,0,0,0-1.35,0c-.44,0-.82,0-1.12,0v7H413a4.64,4.64,0,0,0,1.7-.31,2.24,2.24,0,0,0,1.13-1,4.36,4.36,0,0,0,.41-2.15A10.16,10.16,0,0,0,416.14,34.81Z"/><path class="cls-5" d="M435.24,32.71V43.54a8.91,8.91,0,0,1-.38,2.77,4.29,4.29,0,0,1-1.17,1.84,4.81,4.81,0,0,1-2,1,10.85,10.85,0,0,1-2.77.31,10.53,10.53,0,0,1-2.88-.34A4.22,4.22,0,0,1,423,46.07a10.53,10.53,0,0,1-.34-2.88V32.71h-2.53v-.64h5.76V44.33a8.1,8.1,0,0,0,.2,1.75,3,3,0,0,0,.8,1.52,3.13,3.13,0,0,0,1.41.85,5.27,5.27,0,0,0,1.81.23,5.92,5.92,0,0,0,1.79-.34,3.67,3.67,0,0,0,1.39-.87,3.81,3.81,0,0,0,.9-1.63,6.89,6.89,0,0,0,.25-1.86V32.07h3.31v.64Z"/><path class="cls-5" d="M447.86,46.81a5.82,5.82,0,0,1-2,1.93,5.76,5.76,0,0,1-2.57.78,5.12,5.12,0,0,1-2.56-.46,4.64,4.64,0,0,1-2-1.76,5.58,5.58,0,0,1-.79-3.12h.74a5.39,5.39,0,0,0,.62,2.79A3.77,3.77,0,0,0,441,48.5a4.19,4.19,0,0,0,2.05.44,5.16,5.16,0,0,0,2.05-.5,4.27,4.27,0,0,0,1.57-1.28,3,3,0,0,0,.63-1.86,2.52,2.52,0,0,0-.68-1.88,4.78,4.78,0,0,0-1.68-1.06,20.25,20.25,0,0,0-2.2-.73,9.45,9.45,0,0,1-2.19-.91,5,5,0,0,1-1.68-1.54,4.64,4.64,0,0,1-.68-2.7,4.73,4.73,0,0,1,.85-2.86A4.61,4.61,0,0,1,441.08,32a5.29,5.29,0,0,1,2.7-.27,5.68,5.68,0,0,1,2.7,1.21l1-1h.49v4.82h-.82a5.76,5.76,0,0,0-.8-2.44,4.57,4.57,0,0,0-1.47-1.44,3.91,3.91,0,0,0-1.77-.53,3.76,3.76,0,0,0-1.72.27,3,3,0,0,0-1.3,1,2.65,2.65,0,0,0-.51,1.64,1.9,1.9,0,0,0,.67,1.62,5.46,5.46,0,0,0,1.69.85c.67.21,1.4.41,2.19.59a8.08,8.08,0,0,1,2.19.87A4.9,4.9,0,0,1,448,40.83a5.33,5.33,0,0,1,.68,2.94A5.57,5.57,0,0,1,447.86,46.81Z"/><path class="cls-5" d="M464,37.52a11.18,11.18,0,0,0-.5-2.21,3.89,3.89,0,0,0-.89-1.5,3.41,3.41,0,0,0-1.48-.84,8,8,0,0,0-2.25-.26V48.46h2.67v.64h-5.91V32.71h-2.4l-2.4,0-.38,4.84h-.82l.28-5.45h14.62l.28,5.45Z"/></g></svg>