<svg width="583" height="89" viewBox="0 0 583 89" fill="none" xmlns="http://www.w3.org/2000/svg">
<path d="M263.737 32.8461L258.125 32.8893C254.442 32.8893 251.564 33.911 249.491 35.9544C247.448 37.9977 246.426 41.0772 246.426 45.1927V66.0004H233.13V21.2335H243.836L244.872 25.4641C246.311 24.2554 248.052 23.2481 250.096 22.4423C252.168 21.6364 254.6 21.2335 257.391 21.2335H263.737V32.8461Z" fill="#0C1025"/>
<path d="M294.042 55.9419C295.51 55.9419 296.82 55.7548 297.971 55.3807C299.151 55.0065 300.144 54.3878 300.95 53.5244C301.784 52.6322 302.417 51.4666 302.849 50.0277C303.31 48.5887 303.54 46.7899 303.54 44.6315V21.2335H316.922V45.0631C316.922 49.1499 316.347 52.6178 315.196 55.467C314.044 58.2874 312.447 60.5898 310.404 62.3742C308.36 64.1297 305.943 65.4104 303.151 66.2163C300.36 67.0221 297.323 67.425 294.042 67.425C290.762 67.425 287.725 67.0221 284.934 66.2163C282.142 65.4104 279.725 64.1297 277.681 62.3742C275.638 60.5898 274.041 58.2874 272.889 55.467C271.738 52.6178 271.163 49.1499 271.163 45.0631V21.2335H284.545V44.6315C284.545 46.7612 284.761 48.5599 285.193 50.0277C285.624 51.4666 286.243 52.6322 287.049 53.5244C287.884 54.3878 288.891 55.0065 290.071 55.3807C291.251 55.7548 292.575 55.9419 294.042 55.9419Z" fill="#0C1025"/>
<path d="M374.424 66.0004H360.999V42.3003C360.999 40.2281 360.783 38.487 360.351 37.0768C359.919 35.6666 359.315 34.5442 358.538 33.7095C357.761 32.8461 356.825 32.2274 355.732 31.8532C354.667 31.4791 353.487 31.292 352.192 31.292C350.551 31.292 349.069 31.6086 347.745 32.2418C346.422 32.8461 345.285 33.6952 344.335 34.7888C343.414 35.8536 342.709 37.1343 342.22 38.6309C341.73 40.1274 341.486 41.7535 341.486 43.509V66.0004H328.146V21.2335H338.896L339.716 24.6439C340.637 23.982 341.659 23.3632 342.781 22.7876C343.903 22.1833 345.083 21.6652 346.321 21.2335C347.558 20.8018 348.825 20.4565 350.12 20.1974C351.444 19.9384 352.782 19.8089 354.135 19.8089C357.703 19.8089 360.768 20.327 363.33 21.363C365.891 22.3703 367.992 23.8381 369.632 25.7663C371.273 27.6658 372.482 29.9826 373.259 32.7166C374.036 35.4507 374.424 38.5445 374.424 41.9981V66.0004Z" fill="#0C1025"/>
<path d="M453.079 21.2335L437.366 66.0004H425.408L416.86 41.5232L408.399 66.0004H396.441L380.813 21.2335H395.103L403.78 48.1282H403.909L412.111 21.4494H421.738L429.897 48.1282H430.07L438.704 21.2335H453.079Z" fill="#0C1025"/>
<path d="M460.764 21.2335H474.189V66.0004H460.764V21.2335ZM459.598 9.18919C459.598 8.23946 459.785 7.3329 460.159 6.46951C460.533 5.60611 461.066 4.85784 461.756 4.22469C462.476 3.56275 463.325 3.04472 464.303 2.67058C465.282 2.29644 466.376 2.10938 467.584 2.10938C468.793 2.10938 469.887 2.29644 470.865 2.67058C471.844 3.04472 472.678 3.56275 473.369 4.22469C474.089 4.85784 474.635 5.60611 475.01 6.46951C475.384 7.3329 475.571 8.23946 475.571 9.18919C475.571 10.1677 475.384 11.0887 475.01 11.952C474.635 12.7867 474.089 13.5205 473.369 14.1537C472.678 14.7869 471.829 15.2905 470.822 15.6646C469.844 16.0388 468.75 16.2258 467.541 16.2258C466.361 16.2258 465.282 16.0388 464.303 15.6646C463.325 15.2905 462.49 14.7869 461.8 14.1537C461.109 13.4918 460.562 12.7435 460.159 11.9089C459.785 11.0455 459.598 10.1389 459.598 9.18919Z" fill="#0C1025"/>
<path d="M497.285 52.0135C497.4 53.3661 498.091 54.4597 499.357 55.2943C500.652 56.129 502.278 56.5463 504.235 56.5463C506.768 56.5463 508.595 56.2153 509.718 55.5534C510.84 54.8914 511.401 53.9561 511.401 52.7473C511.401 52.0278 511.142 51.4523 510.624 51.0206C510.106 50.5601 509.344 50.1572 508.336 49.8118C507.329 49.4665 506.092 49.1499 504.624 48.8621C503.156 48.5743 501.458 48.2145 499.53 47.7828C498.666 47.6102 497.717 47.4087 496.681 47.1785C495.645 46.9194 494.609 46.5885 493.572 46.1856C492.565 45.7539 491.587 45.2358 490.637 44.6315C489.687 43.9983 488.838 43.2212 488.09 42.3003C487.37 41.3793 486.795 40.2857 486.363 39.0194C485.931 37.7243 485.716 36.2134 485.716 34.4866C485.716 32.213 486.118 30.1696 486.924 28.3565C487.759 26.5146 489.011 24.9749 490.68 23.7374C492.349 22.471 494.45 21.5069 496.983 20.845C499.515 20.1543 502.494 19.8089 505.919 19.8089C508.711 19.8089 511.214 20.1687 513.43 20.8882C515.675 21.6077 517.575 22.6293 519.129 23.9532C520.683 25.2771 521.863 26.86 522.669 28.7019C523.503 30.515 523.921 32.5152 523.921 34.7024L510.538 34.6593C510.452 33.5656 509.934 32.6303 508.984 31.8532C508.034 31.0474 506.696 30.6445 504.969 30.6445C502.926 30.6445 501.415 31.0186 500.436 31.7669C499.458 32.5152 498.983 33.3786 499.012 34.3571C499.012 34.9327 499.17 35.4219 499.487 35.8249C499.832 36.199 500.35 36.53 501.041 36.8178C501.76 37.0768 502.667 37.307 503.76 37.5085C504.854 37.7099 506.164 37.9114 507.689 38.1128C510.049 38.5158 512.294 39.005 514.423 39.5806C516.553 40.1274 518.424 40.9045 520.035 41.9118C521.676 42.8903 522.971 44.1854 523.921 45.797C524.87 47.3799 525.345 49.3945 525.345 51.8408C525.345 54.5173 524.813 56.8485 523.748 58.8343C522.683 60.7913 521.187 62.4173 519.258 63.7124C517.359 65.0075 515.085 65.9572 512.438 66.5616C509.79 67.1948 506.883 67.5114 503.717 67.5114C500.264 67.5114 497.299 67.0509 494.824 66.1299C492.378 65.209 490.364 64.0146 488.781 62.5468C487.198 61.0503 486.032 59.3811 485.284 57.5392C484.536 55.6685 484.161 53.8122 484.161 51.9703L497.285 52.0135Z" fill="#0C1025"/>
<path d="M532.166 43.6386C532.166 40.3577 532.77 37.2782 533.979 34.4003C535.188 31.4935 536.886 28.9609 539.073 26.8024C541.289 24.6439 543.908 22.9459 546.93 21.7084C549.981 20.4421 553.348 19.8089 557.032 19.8089C560.744 19.8089 564.126 20.4421 567.177 21.7084C570.256 22.9459 572.889 24.6439 575.077 26.8024C577.293 28.9609 579.005 31.4935 580.214 34.4003C581.451 37.2782 582.07 40.3577 582.07 43.6386C582.07 44.5595 582.027 45.279 581.941 45.797C581.883 46.3151 581.811 46.8331 581.725 47.3511H545.419C545.793 48.7613 546.369 50.0277 547.146 51.1501C547.952 52.2725 548.873 53.2366 549.909 54.0424C550.974 54.8195 552.11 55.4239 553.319 55.8556C554.557 56.2873 555.823 56.5031 557.118 56.5031C559.219 56.5031 561.047 56.057 562.601 55.1648C564.155 54.2727 565.335 53.1359 566.141 51.7544H580.559C579.897 53.7115 578.89 55.6397 577.537 57.5392C576.185 59.4099 574.516 61.0791 572.53 62.5468C570.544 64.0146 568.241 65.1946 565.623 66.0868C563.032 66.9789 560.169 67.425 557.032 67.425C553.377 67.425 550.024 66.8063 546.973 65.5687C543.923 64.3024 541.304 62.59 539.116 60.4315C536.929 58.2731 535.217 55.7548 533.979 52.8769C532.77 49.9701 532.166 46.8907 532.166 43.6386ZM557.118 30.3855C554.327 30.3855 551.967 31.0906 550.038 32.5008C548.11 33.911 546.714 35.7673 545.851 38.0697H567.867C567.033 35.7961 565.709 33.9542 563.896 32.544C562.083 31.105 559.823 30.3855 557.118 30.3855Z" fill="#0C1025"/>
<path d="M0.729492 32.5825V88.1583L60.8564 57.0422C66.2337 54.2595 72.658 54.4074 77.9015 57.4347L126.074 85.2467C133.657 89.6246 142.947 89.8385 150.724 85.8142L207 56.6907V1.11496L146.873 32.231C141.496 35.0137 135.072 34.8658 129.828 31.8385L81.6557 4.02638C74.0728 -0.351573 64.7821 -0.565458 57.0057 3.45889L0.729492 32.5825Z" fill="url(#paint0_linear)"/>
<defs>
<linearGradient id="paint0_linear" x1="0.729492" y1="67.4382" x2="207.024" y2="67.4382" gradientUnits="userSpaceOnUse">
<stop stop-color="#FFA53C"/>
<stop offset="0.262239" stop-color="#FF5924"/>
<stop offset="0.398948" stop-color="#6B41E3"/>
<stop offset="0.624917" stop-color="#6C42E4"/>
<stop offset="0.716773" stop-color="#3BA1FF"/>
<stop offset="1" stop-color="#3BFFE7"/>
</linearGradient>
</defs>
</svg>
